<svg xmlns="http://www.w3.org/2000/svg" xmlns:xlink="http://www.w3.org/1999/xlink" xmlns:inkscape="http://www.inkscape.org/namespaces/inkscape" version="1.1" width="250" height="75" viewBox="295 385 250 75">
<defs>
<clipPath id="clip_1">
<path transform="matrix(1,0,0,-1,0,850.394)" d="M0 850.394H841.89V0H0Z"/>
</clipPath>
</defs>

<g clip-path="url(#clip_1)">
<path transform="matrix(1,0,0,-1,536.2825,435.91468)" d="M0 0V1.75C-4.995 2.116-5.531 2.498-5.531 7.704V31.551C-5.531 36.8-4.995 37.167 0 37.491V39.269H-16.862V37.491C-11.824 37.167-11.288 36.8-11.288 31.551V7.704C-11.288 2.498-11.824 2.116-16.862 1.75V0Z" fill="#ffffff"/>
<path transform="matrix(1,0,0,-1,480.5524,403.0937)" d="M0 0C0 2.356 .198 3.104 .776 3.513 1.439 3.922 2.977 4.332 5.757 4.332 10.202 4.332 13.927 3.429 16.791 1.524 21.349-1.327 23.79-6.435 23.79-12.672 23.79-22.168 18.245-30.549 6.674-30.549 2.102-30.549 0-29.435 0-24.651ZM-11.048 6.448V4.585C-6.294 4.218-5.757 3.965-5.757-1.242V-25.187C-5.757-30.352-6.294-30.719-11.585-31.099V-32.835H3.767C11.443-32.835 17.779-31.255 22.548-27.826 27.374-24.284 30.309-18.866 30.309-11.726 30.309-6.068 28.079-1.651 25.032 1.284 21.18 4.825 15.126 6.448 7.21 6.448Z" fill="#ffffff"/>
<path transform="matrix(1,0,0,-1,462.3419,396.64549)" d="M0 0H-14.886V-1.778C-10.639-2.06-9.228-2.893-8.903-5.207-8.565-7.112-8.41-9.511-8.41-14.957V-19.599C-8.41-29.646-11.415-36.673-20.178-36.673-27.699-36.673-31.861-31.212-31.861-21.25V-8.057C-31.861-2.427-31.325-2.06-26.499-1.778V0H-43.022V-1.778C-38.154-2.187-37.618-2.469-37.618-8.057V-22.492C-37.618-29.773-35.812-34.359-32.03-37.167-29.265-39.283-25.666-40.116-21.871-40.116-17.61-40.116-13.405-38.789-10.512-35.841-6.928-32.129-5.785-26.866-5.785-19.712V-14.957C-5.785-9.511-5.588-7.069-5.419-5.376-5.164-2.893-3.598-1.975 0-1.778Z" fill="#ffffff"/>
<path transform="matrix(1,0,0,-1,412.4111,396.64549)" d="M0 0H-14.745V-1.778C-10.328-1.975-8.889-2.766-8.607-5.616-8.438-7.352-8.184-10.075-8.184-15.705V-29.787H-8.353L-34.627 0H-44.137V-1.778C-41.244-1.975-39.918-2.469-38.634-3.965-37.519-5.405-37.307-5.743-37.307-10.16V-23.141C-37.307-28.715-37.562-31.565-37.815-33.47-38.097-36.49-39.664-37.266-43.22-37.52V-39.269H-28.446V-37.52C-32.694-37.195-34.09-36.447-34.373-33.3-34.542-31.565-34.796-28.715-34.796-23.141L-34.753-8.381H-34.669L-7.563-39.876H-5.588V-15.705C-5.588-10.075-5.418-7.352-5.207-5.405-4.925-2.639-3.429-1.933 0-1.778Z" fill="#ffffff"/>
<path transform="matrix(1,0,0,-1,360.5338,425.88209)" d="M0 0C-.903-2.455-2.06-4.572-3.147-5.856-4.544-7.436-6.392-7.846-10.893-7.846-13.702-7.846-16.001-7.846-17.201-7.14-18.358-6.392-18.682-5.024-18.682-2.159V9.016H-13.038C-7.634 9.016-7.182 8.678-6.322 4.233H-4.459V16.114H-6.322C-7.098 12.022-7.507 11.528-13.038 11.528H-18.682V25.06C-18.682 26.88-18.569 27.035-16.538 27.035H-11.965C-7.719 27.035-6.025 26.626-5.122 25.314-4.346 23.987-3.683 22.591-3.104 20.065L-1.2 20.319C-1.453 23.705-1.693 27.684-1.778 29.237H-29.773V27.458C-24.975 27.05-24.439 26.88-24.439 21.349V-2.328C-24.439-7.295-24.975-7.874-30.549-8.283V-10.047H-.254C.296-8.128 1.495-2.54 1.905-.254Z" fill="#ffffff"/>
<path transform="matrix(1,0,0,-1,323.1326,396.64549)" d="M0 0H-16.495V-1.778C-11.542-2.102-10.964-2.512-10.964-7.718V-27.769C-10.964-32.779-11.077-36.376-11.613-39.439-12.276-42.994-14.096-45.717-17.525-47.326L-16.749-49.147C-15.14-48.653-12.981-47.538-10.879-45.591-6.448-41.668-5.291-37.195-5.291-29.477V-7.718C-5.291-2.512-4.755-2.102 0-1.778Z" fill="#ffffff"/>
</g>
</svg>
